<svg viewBox="0 0 81 81" xmlns="http://www.w3.org/2000/svg"><path d="M65.5 16.52a2 2 0 0 0-1.57-.58c-2.71.21-26.7 2.21-33.61 9.11A18.83 18.83 0 0 0 29 50.21L20.15 59a2 2 0 0 0 1.42 3.41 2 2 0 0 0 1.43-.54L31.81 53A18.83 18.83 0 0 0 57 51.7c6.9-6.9 8.9-30.9 9.11-33.61a2 2 0 0 0-.61-1.57zM54.14 48.87a14.81 14.81 0 0 1-19.47 1.31l11-11a2 2 0 0 0-2.83-2.83l-11 11a14.81 14.81 0 0 1 1.31-19.47c4.48-4.48 20.53-6.88 28.73-7.74-.82 8.2-3.25 24.25-7.74 28.73z" fill="#231f20"/><path d="M0 0h81v81H0z" fill="none"/></svg>